{
    "asset" : {
        "generator" : "Khronos glTF Blender I/O v3.4.50",
        "version" : "2.0"
    },
    "extensionsUsed" : [
        "KHR_materials_clearcoat",
        "KHR_materials_specular",
        "KHR_materials_ior"
    ],
    "scene" : 0,
    "scenes" : [
        {
            "name" : "Scene",
            "nodes" : [
                0
            ]
        }
    ],
    "nodes" : [
        {
            "mesh" : 0,
            "name" : "Mug",
            "translation" : [
                0,
                0.03994806110858917,
                0
            ]
        }
    ],
    "materials" : [
        {
            "doubleSided" : true,
            "extensions" : {
                "KHR_materials_clearcoat" : {
                    "clearcoatFactor" : 1,
                    "clearcoatRoughnessFactor" : 0.08281689882278442
                },
                "KHR_materials_specular" : {
                    "specularColorFactor" : [
                        2.371357614441398,
                        2.371357614441398,
                        2.371357614441398
                    ]
                },
                "KHR_materials_ior" : {
                    "ior" : 1.4500000476837158
                }
            },
            "name" : "Mug",
            "pbrMetallicRoughness" : {
                "baseColorTexture" : {
                    "index" : 0
                },
                "metallicFactor" : 0.20000000298023224,
                "roughnessFactor" : 0.20000000298023224
            }
        },
        {
            "doubleSided" : true,
            "extensions" : {
                "KHR_materials_specular" : {
                    "specularColorFactor" : [
                        2.134221796459687,
                        2.134221796459687,
                        2.134221796459687
                    ]
                },
                "KHR_materials_ior" : {
                    "ior" : 1.4500000476837158
                }
            },
            "name" : "Mutra",
            "pbrMetallicRoughness" : {
                "baseColorFactor" : [
                    0.22696588933467865,
                    0.06480327248573303,
                    0.024157634004950523,
                    1
                ],
                "metallicFactor" : 0.4176056385040283,
                "roughnessFactor" : 0.25
            }
        }
    ],
    "meshes" : [
        {
            "name" : "Mesh",
            "primitives" : [
                {
                    "attributes" : {
                        "POSITION" : 0,
                        "TEXCOORD_0" : 1,
                        "NORMAL" : 2
                    },
                    "indices" : 3,
                    "material" : 0
                },
                {
                    "attributes" : {
                        "POSITION" : 4,
                        "TEXCOORD_0" : 5,
                        "NORMAL" : 6
                    },
                    "indices" : 7,
                    "material" : 1
                }
            ]
        }
    ],
    "textures" : [
        {
            "sampler" : 0,
            "source" : 0
        }
    ],
    "images" : [
        {
            "bufferView" : 4,
            "mimeType" : "image/jpeg",
            "name" : "Untitled"
        }
    ],
    "accessors" : [
        {
            "bufferView" : 0,
            "componentType" : 5126,
            "count" : 2402,
            "max" : [
                0.032159216701984406,
                0.0563260018825531,
                0.038858070969581604
            ],
            "min" : [
                -0.04925178363919258,
                -0.03913186490535736,
                -0.0388580746948719
            ],
            "type" : "VEC3"
        },
        {
            "bufferView" : 1,
            "componentType" : 5126,
            "count" : 2402,
            "type" : "VEC2"
        },
        {
            "bufferView" : 2,
            "componentType" : 5126,
            "count" : 2402,
            "type" : "VEC3"
        },
        {
            "bufferView" : 3,
            "componentType" : 5123,
            "count" : 10896,
            "type" : "SCALAR"
        },
        {
            "bufferView" : 5,
            "componentType" : 5126,
            "count" : 1969,
            "max" : [
                0.061362385749816895,
                0.05656275153160095,
                0.03837433084845543
            ],
            "min" : [
                -0.04876825213432312,
                -0.03210742026567459,
                -0.03837433084845543
            ],
            "type" : "VEC3"
        },
        {
            "bufferView" : 6,
            "componentType" : 5126,
            "count" : 1969,
            "type" : "VEC2"
        },
        {
            "bufferView" : 7,
            "componentType" : 5126,
            "count" : 1969,
            "type" : "VEC3"
        },
        {
            "bufferView" : 8,
            "componentType" : 5123,
            "count" : 9552,
            "type" : "SCALAR"
        }
    ],
    "bufferViews" : [
        {
            "buffer" : 0,
            "byteLength" : 28824,
            "byteOffset" : 0,
            "target" : 34962
        },
        {
            "buffer" : 0,
            "byteLength" : 19216,
            "byteOffset" : 28824,
            "target" : 34962
        },
        {
            "buffer" : 0,
            "byteLength" : 28824,
            "byteOffset" : 48040,
            "target" : 34962
        },
        {
            "buffer" : 0,
            "byteLength" : 21792,
            "byteOffset" : 76864,
            "target" : 34963
        },
        {
            "buffer" : 0,
            "byteLength" : 88418,
            "byteOffset" : 98656
        },
        {
            "buffer" : 0,
            "byteLength" : 23628,
            "byteOffset" : 187076,
            "target" : 34962
        },
        {
            "buffer" : 0,
            "byteLength" : 15752,
            "byteOffset" : 210704,
            "target" : 34962
        },
        {
            "buffer" : 0,
            "byteLength" : 23628,
            "byteOffset" : 226456,
            "target" : 34962
        },
        {
            "buffer" : 0,
            "byteLength" : 19104,
            "byteOffset" : 250084,
            "target" : 34963
        }
    ],
    "samplers" : [
        {
            "magFilter" : 9729,
            "minFilter" : 9987
        }
    ],
    "buffers" : [
        {
            "byteLength" : 269188,
            "uri" : "data:application/octet-stream;base64,"
        }
    ]
}
